# xmcd CD database file
#
# Track frame offsets:
#	150
#	19919
#	37580
#	60597
#	85425
#	112121
#	131536
#	150883
#	178554
#	196791
#	213825
#	227330
#
# Disc length: 3564 seconds
#
# Revision: 0
# Processed by: cddbd v1.5.1PL0 Copyright (c) Steve Scherf et al.
# Submitted via: CDex 1.51
#
DISCID=890dea0c
DTITLE=Frank Biner - Fixin' To Jam
DYEAR=2000
DGENRE=Blues
TTITLE0=Oil And Water
TTITLE1=Lonesome Highway
TTITLE2=Louisiana On My Mind
TTITLE3=Down On San Pablo Ave
TTITLE4=Rebel
TTITLE5=Born On Broadway
TTITLE6=Little Miss Behaver
TTITLE7=Don't Answer The Door
TTITLE8=Old Home Week
TTITLE9=You Ain't All That
TTITLE10=Fixin' To Jam
TTITLE11=Brandy
EXTD=YEAR: 2000
EXTT0=
EXTT1=
EXTT2=
EXTT3=
EXTT4=
EXTT5=
EXTT6=
EXTT7=
EXTT8=
EXTT9=
EXTT10=
EXTT11=
PLAYORDER=
